<?xml version="1.0" encoding="UTF-8"?>
<svg width="230px" height="62px" viewBox="0 0 230 62" version="1.1" xmlns="http://www.w3.org/2000/svg" xmlns:xlink="http://www.w3.org/1999/xlink">
    <!-- Generator: Sketch 47.1 (45422) - http://www.bohemiancoding.com/sketch -->
    <title>reversed</title>
    <desc>Created with Sketch.</desc>
    <defs>
        <polygon id="path-1" points="0 61.1784529 229.563365 61.1784529 229.563365 0.569266048 0 0.569266048"></polygon>
    </defs>
    <g id="Page-1" stroke="none" stroke-width="1" fill="none" fill-rule="evenodd">
        <g id="reversed">
            <path d="M159.824631,57.4889827 L157.870341,52.5500305 C157.517965,51.7092245 157.191775,50.4323608 157.191775,50.4323608 C157.191775,50.4323608 156.867863,51.7092245 156.541104,52.5500305 L154.533303,57.4889827 L159.824631,57.4889827 Z M157.084184,47.1488342 L157.355724,47.1488342 L163.243643,60.9882611 L161.235841,60.9882611 L160.421222,58.9542735 L153.908249,58.9542735 L153.094198,60.9882611 L151.222452,60.9882611 L157.084184,47.1488342 Z" id="Fill-2" fill="#FFFFFF"></path>
            <polygon id="Fill-4" fill="#FFFFFF" points="171.954381 47.3127829 170.027985 47.3127829 170.027985 60.9882611 178.331869 60.9882611 178.331869 59.3066492 171.954381 59.3066492"></polygon>
            <polygon id="Fill-6" fill="#FFFFFF" points="187.204449 56.1859327 193.120831 56.1859327 193.120831 54.5845874 187.204449 54.5845874 187.204449 48.994964 193.933174 48.994964 193.933174 47.3127829 185.276914 47.3127829 185.276914 60.9888304 194.205852 60.9888304 194.205852 59.3322662 187.204449 59.3322662"></polygon>
            <polygon id="Fill-14" fill="#DD5F13" points="30.9203685 31.8553311 20.9684595 26.1376229 30.8805199 20.1734225 40.7345152 26.1376229"></polygon>
            <polygon id="Fill-1" fill="#FFFFFF" points="136.83818 47.3130106 136.83818 48.9951917 141.072381 48.9951917 141.072381 60.9884888 142.998777 60.9884888 142.998777 48.9951917 147.232409 48.9951917 147.232409 47.3130106"></polygon>
            <polygon id="Fill-11" fill="#FFFFFF" points="219.169535 47.3127829 219.169535 48.994964 223.403166 48.994964 223.403166 60.9882611 225.328993 60.9882611 225.328993 48.994964 229.563764 48.994964 229.563764 47.3127829"></polygon>
            <path d="M210.541055,55.0184819 C210.541055,56.049992 210.675402,57.2989617 210.675402,57.2989617 C210.675402,57.2989617 209.942757,56.1860466 209.183925,55.3708576 L201.720847,47.1489481 L201.450446,47.1489481 L201.450446,60.988375 L203.240218,60.988375 L203.240218,53.2827898 C203.240218,52.2239549 203.051791,50.9761237 203.051791,50.9761237 C203.051791,50.9761237 203.811192,52.1157944 204.517651,52.8740567 L212.060427,61.1785098 L212.331397,61.1785098 L212.331397,47.3128967 L210.541055,47.3128967 L210.541055,55.0184819 Z" id="Fill-8" fill="#FFFFFF"></path>
            <polygon id="Fill-16" fill="#FF7F2F" points="30.9203685 44.5559982 20.9684595 38.5656115 20.9684595 27.3174837 30.9203685 33.0380382"></polygon>
            <polygon id="Fill-24" fill="#DD5F13" points="19.7851831 12.257095 9.89076988 6.25418451 19.827878 0.569493754 29.6830118 6.53540194"></polygon>
            <polygon id="Fill-21" fill="#FF7F2F" points="9.93534341 44.5632278 -5.69266048e-05 38.5597481 -5.69266048e-05 27.0378033 9.93534341 33.0378674"></polygon>
            <polygon id="Fill-26" fill="#FF7F2F" points="19.7851831 24.9610638 9.89076988 18.9649845 9.89076988 7.43563927 19.7851831 13.439119"></polygon>
            <polygon id="Fill-18" fill="#DD5F13" points="9.93534341 31.8553311 -5.69266048e-05 25.8558362 9.89037139 20.1398358 19.7853538 26.1376229"></polygon>
            <path d="M69.3102476,17.0933516 L71.0596022,17.0933516 L69.6745779,11.8845673 C64.064461,11.8845673 60.3124285,14.2168503 60.4222968,19.8263979 L57.3983556,19.8263979 L57.3983556,24.5621222 L60.4222968,24.5621222 L60.4222968,38.6588573 L66.1047105,38.6588573 L66.1047105,24.5621222 L69.4195467,24.5621222 L69.4195467,19.8263979 L66.1047105,19.8263979 C66.1047105,17.9677443 66.9432394,17.0933516 69.3102476,17.0933516" id="Fill-28" fill="#FFFFFF"></path>
            <path d="M79.8939281,33.6676465 C77.37948,33.6676465 75.1576346,31.5926717 75.1576346,28.9694938 C75.1576346,26.3480236 77.37948,24.269064 79.8939281,24.269064 C82.4436708,24.269064 84.6666547,26.3480236 84.6666547,28.9694938 C84.6666547,31.5926717 82.4436708,33.6676465 79.8939281,33.6676465 M79.8939281,18.9874136 C74.3931103,18.9874136 69.4752209,23.1789195 69.4752209,28.9694938 C69.4752209,34.7623451 74.3931103,38.9510047 79.8939281,38.9510047 C85.4300405,38.9510047 90.3479299,34.7623451 90.3479299,28.9694938 C90.3479299,23.1789195 85.4300405,18.9874136 79.8939281,18.9874136" id="Fill-30" fill="#FFFFFF"></path>
            <path d="M103.223817,30.6100616 C103.223817,32.795474 102.094962,33.8503239 100.382041,33.8503239 C98.6713964,33.8503239 97.5408341,32.795474 97.5408341,30.6100616 L97.5408341,19.7928682 L91.8578511,19.8617493 L91.8578511,31.0108249 C91.8578511,35.6742524 93.5702034,38.9509477 98.7066909,38.9509477 C100.272173,38.9509477 102.495726,38.2951532 103.588147,35.8171381 L103.661013,35.8171381 L103.661013,38.6589142 L108.907369,38.6589142 L108.907369,19.7928682 L103.223817,19.8617493 L103.223817,30.6100616 Z" id="Fill-32" fill="#FFFFFF"></path>
            <path d="M121.061199,18.9876413 C119.492302,18.9876413 117.635926,19.6440051 116.178604,21.8288482 L116.105738,21.8288482 L116.105738,19.7931528 L110.858813,19.7931528 L110.858813,38.6586296 L116.542935,38.6586296 L116.542935,27.3308045 C116.542935,25.1436844 117.672928,24.0882651 119.384142,24.0882651 C121.095925,24.0882651 122.225348,25.1436844 122.225348,27.3308045 L122.225348,38.6586296 L127.907762,38.6586296 L127.907762,26.9300412 C127.907762,22.267183 126.195979,18.9876413 121.061199,18.9876413" id="Fill-34" fill="#FFFFFF"></path>
            <path d="M139.536217,33.8505516 C136.985905,33.8505516 134.982658,31.5928425 134.982658,28.9696646 C134.982658,26.3481944 136.985905,24.0887775 139.536217,24.0887775 C142.085959,24.0887775 144.089206,26.3481944 144.089206,28.9696646 C144.089206,31.5928425 142.085959,33.8505516 139.536217,33.8505516 L139.536217,33.8505516 Z M143.871747,20.8815325 C142.631885,19.6439482 140.62693,18.9875844 138.844558,18.9875844 C133.269736,18.9875844 129.299105,23.7956054 129.299105,29.2246957 C129.299105,34.5792122 133.488334,38.9511754 138.844558,38.9511754 C141.028832,38.9511754 143.106084,38.2225149 144.162642,36.2557007 L144.234369,36.2557007 L144.234369,38.6585727 L149.553591,38.6585727 L149.553591,12.9915051 L143.871747,12.978412 L143.871747,20.8815325 Z" id="Fill-36" fill="#FFFFFF"></path>
            <path d="M158.714505,34.579383 C157.146177,34.579383 155.872729,33.6674188 155.872729,32.1013679 C155.872729,30.5728885 157.146177,29.6609243 158.714505,29.6609243 C160.244123,29.6609243 161.519279,30.5728885 161.519279,32.1013679 C161.519279,33.6674188 160.244123,34.579383 158.714505,34.579383 M158.933673,18.9877552 C157.367622,18.9877552 154.311802,19.2894662 152.97858,19.9515226 L152.993951,24.8529033 C154.525276,24.161245 156.237059,23.7229102 157.912409,23.7229102 C160.352853,23.7229102 161.556281,24.2694056 161.556281,26.8555812 C161.556281,27.0730409 161.556281,27.2580523 161.519279,27.4390789 C160.315851,26.5663941 158.714505,26.0198987 157.294756,26.0198987 C153.686178,26.0198987 150.589371,28.3857684 150.589371,32.1742339 C150.589371,36.1824362 152.887498,38.9513462 157.110883,38.9513462 C159.042402,38.9513462 160.681889,38.4799939 161.772602,36.8017976 L161.848315,36.8017976 L161.848315,38.6587435 L166.800929,38.6587435 L166.800929,25.5445615 C166.800929,20.9187056 163.594254,18.9877552 158.933673,18.9877552" id="Fill-38" fill="#FFFFFF"></path>
            <path d="M176.306705,31.1170499 L176.306705,24.5619514 L179.547536,24.5619514 L179.547536,19.8267964 L176.306705,19.8267964 L176.306705,13.9257846 L170.621445,16.1106276 L170.621445,19.8267964 L168.836796,19.8267964 L167.635644,24.5619514 L170.621445,24.5619514 L170.621445,31.5553848 C170.621445,36.5484173 173.281625,38.9512893 178.309952,38.9512893 C178.602555,38.9512893 178.927606,38.9137177 179.183206,38.8767154 L180.8244,33.2665985 C180.566522,33.3770361 179.838431,33.4869045 179.3278,33.4869045 C177.725885,33.4869045 176.306705,32.9762729 176.306705,31.1170499" id="Fill-40" fill="#FFFFFF"></path>
            <mask id="mask-2" fill="white">
                <use xlink:href="#path-1"></use>
            </mask>
            <g id="Clip-43"></g>
            <polygon id="Fill-42" fill="#FFFFFF" mask="url(#mask-2)" points="182.616563 38.6588573 188.297269 38.6588573 188.297269 19.7928112 182.616563 19.7928112"></polygon>
            <path d="M200.066332,33.6676465 C197.551884,33.6676465 195.3289,31.5926717 195.3289,28.9694938 C195.3289,26.3480236 197.551884,24.269064 200.066332,24.269064 C202.614937,24.269064 204.836213,26.3480236 204.836213,28.9694938 C204.836213,31.5926717 202.614937,33.6676465 200.066332,33.6676465 M200.066332,18.9874136 C194.566084,18.9874136 189.647056,23.1789195 189.647056,28.9694938 C189.647056,34.7623451 194.566084,38.9510047 200.066332,38.9510047 C205.600737,38.9510047 210.519765,34.7623451 210.519765,28.9694938 C210.519765,23.1789195 205.600737,18.9874136 200.066332,18.9874136" id="Fill-44" fill="#FFFFFF" mask="url(#mask-2)"></path>
            <path d="M222.699667,18.9876413 C221.135324,18.9876413 219.276671,19.6440051 217.818211,21.8288482 L217.745914,21.8288482 L217.745914,19.7931528 L212.501266,19.7931528 L212.501266,38.6586296 L218.181972,38.6586296 L218.181972,27.3308045 C218.181972,25.1436844 219.311965,24.0882651 221.024887,24.0882651 C222.73667,24.0882651 223.866094,25.1436844 223.866094,27.3308045 L223.866094,38.6586296 L229.547369,38.6586296 L229.547369,26.9300412 C229.547369,22.267183 227.836724,18.9876413 222.699667,18.9876413" id="Fill-45" fill="#FFFFFF" mask="url(#mask-2)"></path>
        </g>
    </g>
</svg>