<?xml version="1.0" encoding="UTF-8"?>
<svg width="230px" height="62px" viewBox="0 0 230 62" version="1.1" xmlns="http://www.w3.org/2000/svg" xmlns:xlink="http://www.w3.org/1999/xlink">
    <!-- Generator: Sketch 47.1 (45422) - http://www.bohemiancoding.com/sketch -->
    <title>logo</title>
    <desc>Created with Sketch.</desc>
    <defs>
        <polygon id="path-1" points="10.3959366 14.0414594 10.3959366 0.365981142 0.00210628438 0.365981142 0.00210628438 14.0414594 10.3959366 14.0414594"></polygon>
        <polygon id="path-3" points="0 60.9114671 229.563365 60.9114671 229.563365 0.302280272 0 0.302280272"></polygon>
    </defs>
    <g id="Page-1" stroke="none" stroke-width="1" fill="none" fill-rule="evenodd">
        <g id="logo">
            <polygon id="Fill-1" fill="#221F1F" points="136.83818 47.3130106 136.83818 48.9951917 141.072381 48.9951917 141.072381 60.9884888 142.998777 60.9884888 142.998777 48.9951917 147.232409 48.9951917 147.232409 47.3130106"></polygon>
            <g id="Group-46" transform="translate(0.000000, 0.266986)">
                <path d="M159.824631,57.221997 L157.870341,52.2830447 C157.517965,51.4422388 157.191775,50.165375 157.191775,50.165375 C157.191775,50.165375 156.867863,51.4422388 156.541104,52.2830447 L154.533303,57.221997 L159.824631,57.221997 Z M157.084184,46.8818485 L157.355724,46.8818485 L163.243643,60.7212754 L161.235841,60.7212754 L160.421222,58.6872878 L153.908249,58.6872878 L153.094198,60.7212754 L151.222452,60.7212754 L157.084184,46.8818485 Z" id="Fill-2" fill="#221F1F"></path>
                <polygon id="Fill-4" fill="#221F1F" points="171.954381 47.0457971 170.027985 47.0457971 170.027985 60.7212754 178.331869 60.7212754 178.331869 59.0396634 171.954381 59.0396634"></polygon>
                <polygon id="Fill-6" fill="#221F1F" points="187.204449 55.918947 193.120831 55.918947 193.120831 54.3176016 187.204449 54.3176016 187.204449 48.7279783 193.933174 48.7279783 193.933174 47.0457971 185.276914 47.0457971 185.276914 60.7218446 194.205852 60.7218446 194.205852 59.0652804 187.204449 59.0652804"></polygon>
                <g id="Group-10" transform="translate(200.950915, 46.679816)" fill="#221F1F">
                    <path d="M9.59014048,8.07168022 C9.59014048,9.1031903 9.72448727,10.35216 9.72448727,10.35216 C9.72448727,10.35216 8.99184186,9.23924489 8.23301022,8.42405591 L0.76993233,0.202146374 L0.499530957,0.202146374 L0.499530957,14.0415733 L2.28930341,14.0415733 L2.28930341,6.33598804 C2.28930341,5.27715319 2.10087635,4.02932201 2.10087635,4.02932201 C2.10087635,4.02932201 2.86027726,5.16899264 3.56673642,5.92725502 L11.1095116,14.2317081 L11.3804822,14.2317081 L11.3804822,0.366094995 L9.59014048,0.366094995 L9.59014048,8.07168022 Z" id="Fill-8"></path>
                </g>
                <g id="Group-13" transform="translate(219.167428, 46.679816)">
                    <mask id="mask-2" fill="white">
                        <use xlink:href="#path-1"></use>
                    </mask>
                    <g id="Clip-12"></g>
                    <polygon id="Fill-11" fill="#221F1F" mask="url(#mask-2)" points="0.00210628438 0.365981142 0.00210628438 2.04816231 4.23573788 2.04816231 4.23573788 14.0414594 6.16156492 14.0414594 6.16156492 2.04816231 10.3963351 2.04816231 10.3963351 0.365981142"></polygon>
                </g>
                <polygon id="Fill-14" fill="#DD5F13" points="30.9203685 31.5883453 20.9684595 25.8706371 30.8805199 19.9064367 40.7345152 25.8706371"></polygon>
                <polygon id="Fill-16" fill="#FF7F2F" points="30.9203685 44.2890124 20.9684595 38.2986258 20.9684595 27.0504979 30.9203685 32.7710524"></polygon>
                <polygon id="Fill-24" fill="#DD5F13" points="19.7851831 11.9901092 9.89076988 5.98719873 19.827878 0.302507978 29.6830118 6.26841616"></polygon>
                <polygon id="Fill-21" fill="#FF7F2F" points="9.93534341 44.2962421 -5.69266048e-05 38.2927623 -5.69266048e-05 26.7708175 9.93534341 32.7708817"></polygon>
                <polygon id="Fill-26" fill="#FF7F2F" points="19.7851831 24.694078 9.89076988 18.6979988 9.89076988 7.16865349 19.7851831 13.1721332"></polygon>
                <polygon id="Fill-18" fill="#DD5F13" points="9.93534341 31.5883453 -5.69266048e-05 25.5888504 9.89037139 19.87285 19.7853538 25.8706371"></polygon>
                <path d="M69.3102476,16.8263658 L71.0596022,16.8263658 L69.6745779,11.6175815 C64.064461,11.6175815 60.3124285,13.9498645 60.4222968,19.5594121 L57.3983556,19.5594121 L57.3983556,24.2951364 L60.4222968,24.2951364 L60.4222968,38.3918715 L66.1047105,38.3918715 L66.1047105,24.2951364 L69.4195467,24.2951364 L69.4195467,19.5594121 L66.1047105,19.5594121 C66.1047105,17.7007585 66.9432394,16.8263658 69.3102476,16.8263658" id="Fill-28" fill="#221F1F"></path>
                <path d="M79.8939281,33.4006607 C77.37948,33.4006607 75.1576346,31.3256859 75.1576346,28.702508 C75.1576346,26.0810378 77.37948,24.0020782 79.8939281,24.0020782 C82.4436708,24.0020782 84.6666547,26.0810378 84.6666547,28.702508 C84.6666547,31.3256859 82.4436708,33.4006607 79.8939281,33.4006607 M79.8939281,18.7204278 C74.3931103,18.7204278 69.4752209,22.9119338 69.4752209,28.702508 C69.4752209,34.4953593 74.3931103,38.6840189 79.8939281,38.6840189 C85.4300405,38.6840189 90.3479299,34.4953593 90.3479299,28.702508 C90.3479299,22.9119338 85.4300405,18.7204278 79.8939281,18.7204278" id="Fill-30" fill="#221F1F"></path>
                <path d="M103.223817,30.3430758 C103.223817,32.5284882 102.094962,33.5833382 100.382041,33.5833382 C98.6713964,33.5833382 97.5408341,32.5284882 97.5408341,30.3430758 L97.5408341,19.5258824 L91.8578511,19.5947636 L91.8578511,30.7438391 C91.8578511,35.4072666 93.5702034,38.683962 98.7066909,38.683962 C100.272173,38.683962 102.495726,38.0281675 103.588147,35.5501524 L103.661013,35.5501524 L103.661013,38.3919285 L108.907369,38.3919285 L108.907369,19.5258824 L103.223817,19.5947636 L103.223817,30.3430758 Z" id="Fill-32" fill="#221F1F"></path>
                <path d="M121.061199,18.7206555 C119.492302,18.7206555 117.635926,19.3770193 116.178604,21.5618624 L116.105738,21.5618624 L116.105738,19.526167 L110.858813,19.526167 L110.858813,38.3916438 L116.542935,38.3916438 L116.542935,27.0638187 C116.542935,24.8766986 117.672928,23.8212793 119.384142,23.8212793 C121.095925,23.8212793 122.225348,24.8766986 122.225348,27.0638187 L122.225348,38.3916438 L127.907762,38.3916438 L127.907762,26.6630555 C127.907762,22.0001973 126.195979,18.7206555 121.061199,18.7206555" id="Fill-34" fill="#221F1F"></path>
                <path d="M139.536217,33.5835659 C136.985905,33.5835659 134.982658,31.3258567 134.982658,28.7026788 C134.982658,26.0812086 136.985905,23.8217917 139.536217,23.8217917 C142.085959,23.8217917 144.089206,26.0812086 144.089206,28.7026788 C144.089206,31.3258567 142.085959,33.5835659 139.536217,33.5835659 L139.536217,33.5835659 Z M143.871747,20.6145468 C142.631885,19.3769624 140.62693,18.7205986 138.844558,18.7205986 C133.269736,18.7205986 129.299105,23.5286197 129.299105,28.95771 C129.299105,34.3122264 133.488334,38.6841897 138.844558,38.6841897 C141.028832,38.6841897 143.106084,37.9555291 144.162642,35.9887149 L144.234369,35.9887149 L144.234369,38.3915869 L149.553591,38.3915869 L149.553591,12.7245193 L143.871747,12.7114262 L143.871747,20.6145468 Z" id="Fill-36" fill="#221F1F"></path>
                <path d="M158.714505,34.3123972 C157.146177,34.3123972 155.872729,33.400433 155.872729,31.8343821 C155.872729,30.3059027 157.146177,29.3939385 158.714505,29.3939385 C160.244123,29.3939385 161.519279,30.3059027 161.519279,31.8343821 C161.519279,33.400433 160.244123,34.3123972 158.714505,34.3123972 M158.933673,18.7207694 C157.367622,18.7207694 154.311802,19.0224804 152.97858,19.6845368 L152.993951,24.5859175 C154.525276,23.8942592 156.237059,23.4559244 157.912409,23.4559244 C160.352853,23.4559244 161.556281,24.0024198 161.556281,26.5885955 C161.556281,26.8060551 161.556281,26.9910665 161.519279,27.1720932 C160.315851,26.2994083 158.714505,25.7529129 157.294756,25.7529129 C153.686178,25.7529129 150.589371,28.1187826 150.589371,31.9072481 C150.589371,35.9154504 152.887498,38.6843604 157.110883,38.6843604 C159.042402,38.6843604 160.681889,38.2130082 161.772602,36.5348118 L161.848315,36.5348118 L161.848315,38.3917577 L166.800929,38.3917577 L166.800929,25.2775757 C166.800929,20.6517198 163.594254,18.7207694 158.933673,18.7207694" id="Fill-38" fill="#221F1F"></path>
                <path d="M176.306705,30.8500642 L176.306705,24.2949656 L179.547536,24.2949656 L179.547536,19.5598106 L176.306705,19.5598106 L176.306705,13.6587988 L170.621445,15.8436419 L170.621445,19.5598106 L168.836796,19.5598106 L167.635644,24.2949656 L170.621445,24.2949656 L170.621445,31.288399 C170.621445,36.2814315 173.281625,38.6843035 178.309952,38.6843035 C178.602555,38.6843035 178.927606,38.646732 179.183206,38.6097297 L180.8244,32.9996128 C180.566522,33.1100504 179.838431,33.2199187 179.3278,33.2199187 C177.725885,33.2199187 176.306705,32.7092871 176.306705,30.8500642" id="Fill-40" fill="#221F1F"></path>
                <mask id="mask-4" fill="white">
                    <use xlink:href="#path-3"></use>
                </mask>
                <g id="Clip-43"></g>
                <polygon id="Fill-42" fill="#221F1F" mask="url(#mask-4)" points="182.616563 38.3918715 188.297269 38.3918715 188.297269 19.5258254 182.616563 19.5258254"></polygon>
                <path d="M200.066332,33.4006607 C197.551884,33.4006607 195.3289,31.3256859 195.3289,28.702508 C195.3289,26.0810378 197.551884,24.0020782 200.066332,24.0020782 C202.614937,24.0020782 204.836213,26.0810378 204.836213,28.702508 C204.836213,31.3256859 202.614937,33.4006607 200.066332,33.4006607 M200.066332,18.7204278 C194.566084,18.7204278 189.647056,22.9119338 189.647056,28.702508 C189.647056,34.4953593 194.566084,38.6840189 200.066332,38.6840189 C205.600737,38.6840189 210.519765,34.4953593 210.519765,28.702508 C210.519765,22.9119338 205.600737,18.7204278 200.066332,18.7204278" id="Fill-44" fill="#221F1F" mask="url(#mask-4)"></path>
                <path d="M222.699667,18.7206555 C221.135324,18.7206555 219.276671,19.3770193 217.818211,21.5618624 L217.745914,21.5618624 L217.745914,19.526167 L212.501266,19.526167 L212.501266,38.3916438 L218.181972,38.3916438 L218.181972,27.0638187 C218.181972,24.8766986 219.311965,23.8212793 221.024887,23.8212793 C222.73667,23.8212793 223.866094,24.8766986 223.866094,27.0638187 L223.866094,38.3916438 L229.547369,38.3916438 L229.547369,26.6630555 C229.547369,22.0001973 227.836724,18.7206555 222.699667,18.7206555" id="Fill-45" fill="#221F1F" mask="url(#mask-4)"></path>
            </g>
        </g>
    </g>
</svg>